<svg width="64" height="64" viewBox="0 0 64 64" fill="none" xmlns="http://www.w3.org/2000/svg">
<rect width="64" height="64" rx="16" fill="#EEF4FF"/>
<rect x="8" y="8" width="48" height="48" rx="12" fill="#DBEAFE"/>
<path d="M32 18L34.4749 25.5251L42 28L34.4749 30.4749L32 38L29.5251 30.4749L22 28L29.5251 25.5251L32 18Z" fill="#2563EB"/>
<path d="M45 15L45.9899 18.0101L49 19L45.9899 19.9899L45 23L44.0101 19.9899L41 19L44.0101 18.0101L45 15Z" fill="#3B82F6"/>
<path d="M19 39L19.8246 41.1754L22 42L19.8246 42.8246L19 45L18.1754 42.8246L16 42L18.1754 41.1754L19 39Z" fill="#60A5FA"/>
</svg>
